<svg width="128" height="128" viewBox="0 0 128 128" fill="none" xmlns="http://www.w3.org/2000/svg">
  <!-- Background gradient -->
  <defs>
    <linearGradient id="grad1" x1="0%" y1="0%" x2="100%" y2="100%">
      <stop offset="0%" style="stop-color:#667eea;stop-opacity:1" />
      <stop offset="100%" style="stop-color:#764ba2;stop-opacity:1" />
    </linearGradient>
  </defs>
  
  <!-- Rounded square background -->
  <rect width="128" height="128" rx="24" fill="url(#grad1)"/>
  
  <!-- Main star (sparkle) -->
  <path d="M64 20L72 52L104 60L72 68L64 100L56 68L24 60L56 52L64 20Z" fill="white"/>
  
  <!-- Small star (top right) -->
  <path d="M92 32L94 40L102 42L94 44L92 52L90 44L82 42L90 40L92 32Z" fill="white" opacity="0.8"/>
  
  <!-- Small star (bottom left) -->
  <path d="M36 76L38 84L46 86L38 88L36 96L34 88L26 86L34 84L36 76Z" fill="white" opacity="0.8"/>
</svg>
